Coordinates
nRows=154
nColumns=2
inDegrees=yes
endheader
time	ankle_angle_r	
4.5	 -0.571841	
4.5625	 -0.525883	
4.625	 -0.542414	
4.6875	 -0.564575	
4.75	 -0.490461	
4.8125	 -0.534058	
4.875	 -0.534058	
4.9375	 -0.494276	
5	 -0.518799	
5.0625	 -0.488281	
5.125	 -0.498090	
5.1875	 -0.473022	
5.25	 -0.483195	
5.3125	 -0.518799	
5.375	 -0.518799	
5.4375	 -0.520434	
5.5	 -0.549316	
5.5625	 -0.525702	
5.625	 -0.542050	
5.6875	 -0.534058	
5.75	 -0.507900	
5.8125	 -0.549316	
5.875	 -0.518799	
5.9375	 -0.521887	
6	 -0.564575	
6.0625	 -0.561850	
6.125	 -0.564575	
6.1875	 -0.455402	
6.25	 -0.457764	
6.3125	 -0.431242	
6.375	 -0.430879	
6.4375	 -0.488281	
6.5	 -0.473022	
6.5625	 -0.471751	
6.625	 -0.516619	
6.6875	 -0.397637	
6.75	 -0.398182	
6.8125	 -0.427791	
6.875	 -0.411987	
6.9375	 -0.488281	
7	 -0.442505	
7.0625	 -0.457764	
7.125	 -0.487918	
7.1875	 -0.427246	
7.25	 -0.489008	
7.3125	 -0.427246	
7.375	 -0.444685	
7.4375	 -0.489553	
7.5	 -0.427246	
7.5625	 -0.489916	
7.625	 -0.452314	
7.6875	 -0.413985	
7.75	 -0.427246	
7.8125	 -0.411987	
7.875	 -0.506083	
7.9375	 -0.470298	
8	 -0.473022	
8.0625	 -0.515711	
8.125	 -0.461033	
8.1875	 -0.506991	
8.25	 -0.537691	
8.3125	 -0.499725	
8.375	 -0.568572	
8.4375	 -0.553494	
8.5	 -0.544957	
8.5625	 -0.575293	
8.625	 -0.529335	
8.6875	 -0.534058	
8.75	 -0.523885	
8.8125	 -0.508263	
8.875	 -0.564575	
8.9375	 -0.549316	
9	 -0.555129	
9.0625	 -0.540597	
9.125	 -0.503540	
9.1875	 -0.527700	
9.25	 -0.503540	
9.3125	 -0.508445	
9.375	 -0.502087	
9.4375	 -0.488281	
9.5	 -0.534058	
9.5625	 -0.442505	
9.625	 -0.450134	
9.6875	 -0.503540	
9.75	 -0.457764	
9.8125	 -0.480107	
9.875	 -0.466120	
9.9375	 -0.479744	
10	 -0.516619	
10.0625	 -0.442505	
10.125	 -0.430153	
10.1875	 -0.417982	
10.25	 -0.442505	
10.3125	 -0.503540	
10.375	 -0.493731	
10.4375	 -0.528790	
10.5	 -0.569661	
10.5625	 -0.498635	
10.625	 -0.544593	
10.6875	 -0.527881	
10.75	 -0.514439	
10.8125	 -0.579834	
10.875	 -0.538054	
10.9375	 -0.564575	
11	 -0.529698	
11.0625	 -0.498635	
11.125	 -0.796727	
11.1875	 -0.787281	
11.25	 -0.790551	
11.3125	 -0.701904	
11.375	 -0.528971	
11.4375	 -0.579834	
11.5	 -0.479562	
11.5625	 -0.520797	
11.625	 -0.535874	
11.6875	 -0.491551	
11.75	 -0.552223	
11.8125	 -0.550588	
11.875	 -0.547137	
11.9375	 -0.578017	
12	 -0.503540	
12.0625	 -0.534058	
12.125	 -0.473386	
12.1875	 -0.442505	
12.25	 -0.488281	
12.3125	 -0.472841	
12.375	 -0.488645	
12.4375	 -0.502995	
12.5	 -0.458490	
12.5625	 -0.473931	
12.625	 -0.458854	
12.6875	 -0.490824	
12.75	 -0.502087	
12.8125	 -0.457764	
12.875	 -0.518799	
12.9375	 -0.486283	
13	 -0.473022	
13.0625	 -0.488281	
13.125	 -0.455221	
13.1875	 -0.485556	
13.25	 -0.491188	
13.3125	 -0.457764	
13.375	 -0.476292	
13.4375	 -0.442505	
13.5	 -0.442505	
13.5625	 -0.503540	
13.625	 -0.461760	
13.6875	 -0.518799	
13.75	 -0.503540	
13.8125	 -0.498999	
13.875	 -0.498817	
13.9375	 -0.447409	
14	 -0.467936	
14.0625	 -0.477745	
